<?xml version="1.0" standalone="no"?>
<!DOCTYPE svg PUBLIC "-//W3C//DTD SVG 20010904//EN"
 "http://www.w3.org/TR/2001/REC-SVG-20010904/DTD/svg10.dtd">
<svg version="1.0" xmlns="http://www.w3.org/2000/svg"
 width="500.000000pt" height="500.000000pt" viewBox="0 0 500.000000 500.000000"
 preserveAspectRatio="xMidYMid meet">
<metadata>
Created by potrace 1.11, written by Peter Selinger 2001-2013
</metadata>
<g transform="translate(0.000000,500.000000) scale(0.100000,-0.100000)"
fill="#000000" stroke="none">
<path d="M2250 4485 l0 -65 132 0 132 0 -30 -31 c-16 -17 -56 -47 -89 -66
-106 -63 -141 -106 -147 -179 l-3 -39 263 -3 262 -2 0 65 0 65 -127 0 -128 1
45 40 c25 22 78 63 117 90 89 60 105 83 101 141 l-3 43 -262 3 -263 2 0 -65z"/>
<path d="M1266 4533 c-392 -3 -431 -5 -449 -21 -20 -17 -20 -33 -13 -1252 8
-1409 14 -1637 45 -1789 91 -439 389 -771 821 -915 279 -93 694 -141 1020
-117 629 46 1006 208 1255 539 153 204 232 421 255 710 17 200 26 2728 11
2775 -23 68 -15 67 -530 67 l-460 0 -4 -1352 c-3 -1257 -4 -1358 -21 -1428
-51 -214 -160 -326 -369 -380 -224 -57 -474 -52 -682 14 -179 57 -270 158
-309 343 -33 154 -36 290 -36 1528 0 682 -4 1245 -8 1252 -10 15 -58 34 -80
31 -9 -2 -210 -4 -446 -5z"/>
<path d="M2382 4012 c-103 -37 -141 -99 -142 -230 0 -168 69 -241 239 -250
123 -7 182 9 241 66 39 38 50 57 59 100 30 144 -10 251 -113 304 -60 31 -211
36 -284 10z m223 -126 c43 -18 68 -56 68 -106 0 -78 -59 -122 -163 -123 -123
-2 -192 82 -148 179 26 56 162 84 243 50z"/>
<path d="M2246 3504 c-12 -31 -6 -87 13 -113 11 -15 46 -42 78 -59 91 -49 100
-57 83 -77 -7 -9 -39 -30 -71 -45 -69 -36 -109 -80 -109 -123 0 -39 10 -77 19
-77 4 0 65 36 137 80 158 98 231 125 321 117 l64 -5 -3 66 -3 66 -90 0 c-80 1
-97 4 -155 33 -36 18 -107 59 -159 93 -100 64 -115 69 -125 44z"/>
<path d="M2250 2900 l0 -60 125 0 c73 0 125 -4 125 -10 0 -10 -108 -99 -182
-149 -56 -38 -78 -66 -78 -102 0 -62 -12 -59 276 -59 l264 0 0 60 0 60 -130 0
c-71 0 -130 4 -130 8 0 15 65 70 125 105 95 56 135 108 135 178 l0 29 -265 0
-265 0 0 -60z"/>
</g>
</svg>
