<svg version="1.1" id="Calque_1" xmlns="http://www.w3.org/2000/svg" xmlns:xlink="http://www.w3.org/1999/xlink" x="0px" y="0px"
	 width="310.109px" height="60.096px" viewBox="0 0 310.109 60.096" enable-background="new 0 0 310.109 60.096"
	 xml:space="preserve">
<path fill="#FFFFFF" d="M30.2,34.976c0,3.487-0.519,6.62-6.766,6.62c-6.248,0-6.766-3.133-6.766-6.62V10.992H7.102v24.179
	c0,10.221,5.19,14.978,16.333,14.978c11.145,0,16.334-4.757,16.334-14.978V10.992H30.2V34.976z"/>
<rect x="78.438" y="10.992" fill="#FFFFFF" width="9.566" height="38.382"/>
<path fill="#FFFFFF" d="M116.162,26.21c0,0.002,0.028,4.054,0.042,5.998c-0.794-1.203-2.924-4.426-2.924-4.426l-11.566-16.791
	h-8.746v38.383h9.569v-15.22c0-0.001-0.029-4.052-0.042-5.997c0.795,1.203,2.92,4.42,2.92,4.42
	c0.003,0.006,11.569,16.796,11.569,16.796h8.746V10.991h-9.568V26.21z"/>
<polygon fill="#FFFFFF" points="139.729,34.071 155.563,34.071 155.563,25.472 139.729,25.472 139.729,19.592 158.18,19.592
	158.18,10.991 130.16,10.991 130.16,49.374 159.146,49.374 159.146,40.772 139.729,40.772 "/>
<path fill="#FFFFFF" d="M183.248,33.116h-4.943c0.322-0.925,0.646-1.85,0.965-2.775c0.502-1.438,1.004-2.878,1.506-4.315
	c0.472,1.35,0.941,2.699,1.412,4.05C182.541,31.088,182.895,32.104,183.248,33.116z M177.066,10.625
	c-4.891,12.798-9.782,25.597-14.676,38.394h9.191c0.875-2.53,1.746-5.062,2.619-7.593l0.129-0.366h0.391h12.064h0.387l0.129,0.364
	c0.889,2.53,1.777,5.063,2.666,7.595h9.193c-4.894-12.798-9.781-25.596-14.675-38.394H177.066z"/>
<path fill="#FFFFFF" d="M254.699,33.633h-6.406c0.237-0.687,2.733-7.877,3.203-9.225C251.965,25.755,254.459,32.946,254.699,33.633z
	 M247.459,10.244L232.555,49.4h10.248c0,0,2.578-7.503,2.713-7.894h11.912c0.137,0.389,2.762,7.894,2.762,7.894h10.246
	l-14.904-39.157L247.459,10.244L247.459,10.244z"/>
<path fill="#FFFFFF" d="M231.549,17.187c-2.404-4.537-7.678-6.943-15.287-6.943c-11.688,0-18.123,7.09-18.123,19.966
	c0,12.971,6.248,19.875,18.072,19.965c5.996,0.052,13.397-2.678,16.434-7.133v-1.121V27.144h-16.543v7.875h7.955v3.467
	c0,0-1.719,3.014-7.787,3.089c-5.697,0.072-8.467-3.836-8.467-11.366c0-7.646,2.768-11.398,8.459-11.364
	c4.238,0.022,5.336,0.799,8.342,3.538"/>
<path fill="#FFFFFF" d="M303.602,17.386v-6.367h-31.07v8.6h12.412c0,0,3.968-0.031,5.537-0.044
	c-0.549,0.647-1.703,2.013-1.703,2.013c-0.004,0.007-17.116,21.446-17.116,21.446V49.4h31.94V40.8h-13.283
	c-0.002,0-3.967,0.032-5.537,0.046c0.548-0.648,1.701-2.012,1.701-2.012C286.488,38.825,303.602,17.386,303.602,17.386z"/>
<path fill="#FFFFFF" d="M58.159,10.244c-5.03,0-9.275,1.506-11.95,4.24c-2.108,2.156-3.177,4.965-3.177,8.35
	c0,0.12,0.001,0.239,0.004,0.361c0.201,9.31,7.741,10.418,15.447,10.759c5.925,0.305,7.029,1.441,7.069,3.576v0.06
	c0,2.522-2.245,3.864-6.676,3.986c-2.666,0.082-4.498-0.522-5.821-1.35c-1.093-0.688-2.968-2.751-2.968-2.751l-7.176,5.556
	c2.697,4.641,7.375,7.146,15.972,7.146c5.56,0,10.178-1.581,13.006-4.456c2.134-2.169,3.189-4.995,3.133-8.396
	c-0.143-9.209-5.312-11.121-16.121-11.729c-5.313-0.343-6.256-0.731-6.299-2.608c-0.051-3.646,3.873-4.113,5.562-4.143
	c4.599-0.096,6.061,0.715,8.938,3.538l6.833-5.412C71.457,13.355,67.298,10.244,58.159,10.244z"/>
<g>
	<path fill="#FFFFFF" d="M23.135,27.634l0.717-0.474l-0.954,0.007h-2.025V25.95h5.13v1.125l-2.262,1.559l-0.718,0.474l0.954-0.006
		h2.025v1.217h-5.13v-1.125L23.135,27.634z"/>
	<path fill="#FFFFFF" d="M20.872,21.918v-1.434l3.189,1.986h1.94v1.223h-1.94l-3.189,1.986v-1.434l2.039-1.164L20.872,21.918z"/>
	<path fill="#FFFFFF" d="M23.437,20.607c-1.598,0-2.67-0.69-2.67-2.42c0-1.724,1.072-2.42,2.67-2.42c1.599,0,2.67,0.689,2.67,2.42
		C26.107,19.91,25.035,20.607,23.437,20.607z M23.437,19.377c0.829,0,1.585-0.217,1.585-1.189c0-0.974-0.756-1.19-1.585-1.19
		s-1.585,0.217-1.585,1.19C21.852,19.16,22.608,19.377,23.437,19.377z"/>
	<path fill="#FFFFFF" d="M23.135,12.47l0.717-0.475l-0.954,0.007h-2.025v-1.217h5.13v1.125l-2.262,1.56l-0.718,0.474l0.954-0.006
		h2.025v1.216h-5.13v-1.125L23.135,12.47z"/>
</g>
</svg>
